PathFileType	4	(X/Y/Z)	Patient4_TMGait_0pt7_01_left_32.trc.trc
DataRate	CameraRate	NumFrames	NumMarkers	Units	OrigDataRate	OrigDataStartFrame	OrigNumFrames
84.848484848485	84.848484848485	6	33	mm	84.848484848485	106	       141
Frame#	Time	Sacral			L.Shoulder			Chest			R.Shoulder			Neck			R.ASIS			L.ASIS			R.Thigh.Superior			R.Thigh.Lateral			R.Thigh.Inferior			R.Patella			L.Thigh.Superior			L.Thigh.Lateral			L.Thigh.Inferior			L.Patella			L.Shank.Superior			L.Shank.Lateral			L.Shank.Inferior			R.Shank.Superior			R.Shank.Lateral			R.Shank.Inferior			R.Heel			R.Midfoot.Superior			R.Midfoot.Lateral			R.Toe			L.Heel			L.Midfoot.Lateral			L.Midfoot.Superior			L.Toe			L.Elbow			L.Wrist			R.Elbow			R.Wrist			
		X1	Y1	Z1	X2	Y2	Z2	X3	Y3	Z3	X4	Y4	Z4	X5	Y5	Z5	X6	Y6	Z6	X7	Y7	Z7	X8	Y8	Z8	X9	Y9	Z9	X10	Y10	Z10	X11	Y11	Z11	X12	Y12	Z12	X13	Y13	Z13	X14	Y14	Z14	X15	Y15	Z15	X16	Y16	Z16	X17	Y17	Z17	X18	Y18	Z18	X19	Y19	Z19	X20	Y20	Z20	X21	Y21	Z21	X22	Y22	Z22	X23	Y23	Z23	X24	Y24	Z24	X25	Y25	Z25	X26	Y26	Z26	X27	Y27	Z27	X28	Y28	Z28	X29	Y29	Z29	X30	Y30	Z30	X31	Y31	Z31	X32	Y32	Z32	X33	Y33	Z33	

106	38.187500000000	769.740706341118	1013.953827590707	545.469972597758	952.000705323832	1430.401303132080	339.947526940020	1072.154952086404	1352.153242410790	486.170441034865	1018.845697865204	1436.103631034584	667.892174663772	983.905580475435	1491.306323919927	491.847260609433	1005.725662261289	942.675094764064	637.635122801237	962.426949843765	960.347051943941	366.485819142776	1027.667611419085	738.105308358869	606.817228054934	940.636276851034	634.071048314955	670.298520756802	1007.389276365216	577.959561025444	585.705409726938	1000.957051490444	492.106349839731	589.746012066796	1058.958391927984	806.999632372980	392.649847962597	1033.826017810886	679.663663999521	305.487806549058	1147.795587165936	631.593733621240	361.931355910746	1177.517951573208	547.573341659021	348.181979434040	1128.855923611437	469.325377795801	340.950895776052	1003.046712340278	389.193624767954	297.739782465701	1033.434179642529	259.638638705696	346.249311657688	972.560384749456	404.920672657747	596.578698619331	901.521600621959	299.895964225950	656.466478866744	942.651411661669	206.791369696506	588.510289129854	809.399106047667	42.631591251549	550.986988578522	980.079858726739	96.910984314503	591.614372532648	891.062745461863	36.179802385132	627.086222176321	1099.650671303617	43.766619512787	620.870442426888	874.008030314435	145.499632487941	391.759547489026	935.876342156370	114.653408860968	307.893365237912	1036.401795592939	149.320024857600	322.686321852712	1137.997312972458	60.048076688686	289.736550174629	862.115825014982	1082.167130259606	250.951587605158	906.736013338325	823.592306426691	247.940027099999	1060.738741639415	1093.272282680274	797.016904500657	1256.566293061455	931.846778881147	739.131543835859	
107	38.199285714286	768.852675003256	1014.520555581417	546.391051942007	950.755448394832	1430.515320041517	340.541138916390	1071.686471772881	1351.766479524752	485.822375386859	1019.892105334156	1435.812537520728	668.010689693640	983.571657203871	1491.214249713487	492.396460217101	1004.782674526757	942.632945792852	637.740321391206	960.838904962152	960.132024876210	366.642677178157	1023.415568019345	737.281762486337	607.366889801447	934.637647041464	634.377663158410	671.281491388827	1000.324658555903	577.147186683397	587.016431171050	992.737950569970	491.927239641002	591.139100060730	1056.883177467154	807.798545244105	393.356065167788	1033.420679969037	680.624306589323	305.300184180939	1147.049065326252	633.295973506221	362.495811716017	1178.250967527311	550.893081044404	348.256083766204	1133.273307499746	471.833239391425	340.563354556443	1012.572630637319	384.753770679121	296.750826986837	1050.679803098436	256.787540850694	344.714262670484	964.195581442716	405.066328164736	597.676642350217	892.828269552799	300.038805921614	657.243857595138	934.226999340486	206.983621105554	589.230807773102	801.084461923433	42.692938418613	551.069193687045	971.827153693352	96.890062158546	591.874479315438	882.734486663209	36.157184642424	627.220258951070	1091.322434864023	43.591627969450	620.939072217445	898.556448953180	132.757251447700	389.655029213622	962.172419634048	106.349223602166	305.624125694697	1060.380657951265	146.947629007045	320.666317631901	1167.259227142690	64.282814837095	287.273610319349	854.509856312397	1083.921287612778	252.587926678537	884.433658076725	823.361499299014	249.401608081090	1071.814402107238	1094.995204082943	796.699423795953	1276.174173834655	946.886245345025	734.469596939943	
108	38.211071428571	768.041472370100	1014.909567470560	547.056212079112	949.681479704835	1430.528472275761	341.016870037778	1071.267750551230	1351.234517662661	485.432260678995	1020.844249147427	1435.335636186693	668.049401467699	983.304911695784	1490.971006356916	492.869290228067	1003.853404738175	942.530429548298	637.865944837539	959.521658602471	959.664766496432	366.684563642605	1019.247575047696	736.411768114687	608.114567177741	928.572130319932	634.664357370652	672.243095217940	993.328691990448	576.329581413357	588.433504722150	984.627553647124	491.723122578630	592.613644692720	1054.733708814379	807.922717918589	393.979191677829	1032.589773663393	680.914415762021	305.109405147843	1145.766121933665	634.095644044063	363.066343170442	1178.276437806618	553.435213110330	348.503981394447	1137.031273062160	473.858822528683	340.382956799615	1022.052349856718	380.134678145752	295.567088650298	1067.630066129610	254.246000124300	343.213610217994	955.870398688362	405.212245608209	598.776386925669	884.117789673726	300.198517142310	657.989438077836	925.811726970936	207.188444459798	589.961150098611	792.766156553195	42.754447935180	551.156134233134	963.561883442890	96.852320426321	592.105546906571	874.400569231114	36.146217861123	627.372290701079	1082.991917433582	43.436975635396	621.014808611280	923.331714079564	120.788548112051	387.116552264465	988.696059302380	98.901325878142	303.177708511148	1084.131586253861	145.257464193366	318.789393994543	1195.928509169834	69.487023231925	285.420317126176	846.731733686926	1085.946283946252	253.741195616184	863.443712398184	824.364831119122	250.985375605808	1082.551817947067	1096.826444453494	796.095667909796	1294.534729357952	962.527374946063	729.640363412748	
109	38.222857142857	767.316464396483	1015.117252536486	547.460931163489	948.778818585191	1430.434899394488	341.360722475019	1070.895228780247	1350.571427816085	485.001471475401	1021.679173491563	1434.690375119031	668.001453172628	983.104072071136	1490.583055982526	493.247556447570	1002.938656877118	942.361009039695	638.021056695941	958.487566291149	958.960403328191	366.608995783004	1015.197110787277	735.493327793965	609.035872459350	922.502979614961	634.920104496205	673.156027022947	986.463121234676	575.511918315214	589.901332455701	976.690716042669	491.477615419805	594.107490796602	1052.565692924268	807.411964936195	394.502582815262	1031.335659027259	680.535079929417	304.919881895688	1144.011891232102	634.015215057538	363.589555041016	1177.652728770869	555.200512943348	348.923932686144	1140.140562178633	475.400953230729	340.422087363334	1031.406658262075	375.436821818359	294.212956439085	1084.084139767043	252.069666476392	341.795733004155	947.648221988471	405.342897520364	599.839600109130	875.449199884240	300.371334385770	658.683896681104	917.434661092555	207.392872158836	590.675359732151	784.444628838206	42.812321511040	551.248295669400	955.288132400436	96.801875029979	592.307741249411	866.061931871411	36.148192451285	627.541124086130	1074.660637443719	43.306786514135	621.098143182124	948.002840400056	109.749759807515	384.200162473125	1015.127106587916	92.406991591486	300.625039355913	1107.377255002588	144.292397494306	317.113465911105	1223.699598054895	75.627247758209	284.270936329977	838.837774228496	1088.224790437204	254.456733082887	843.877189433714	826.352602028012	252.699406815809	1092.918181502721	1098.750571712252	795.191533953685	1311.579705804639	978.639876396711	724.672781022330	
110	38.234642857143	766.688436890006	1015.143914471873	547.601191233254	948.043042324296	1430.229617216909	341.559703904017	1070.564151706986	1349.796528868513	484.531190410831	1022.373010046881	1433.901773506532	667.858594814204	982.961038268590	1490.061569591914	493.512574917319	1002.044677400986	942.117145085843	638.201018352388	957.745750685368	958.041870432602	366.417278992181	1011.299508773567	734.526981571527	610.081975892919	916.513029287852	635.132536112530	673.989466268095	979.797839338345	574.698080031105	591.351265809567	968.998862473768	491.175320273677	595.550945112378	1050.442530999667	806.320897581818	394.907891115909	1029.678536456444	679.505671571263	304.733620013508	1141.865345203230	633.098406442483	364.014771092142	1176.450675013029	556.204627082303	349.502108371727	1142.617016726099	476.460389797374	340.671285754276	1040.507103466062	370.745392166132	292.748474301439	1099.818826092460	250.269837676482	340.511188137418	939.600368148651	405.439749175225	600.826170782316	866.890796341375	300.552261212460	659.306955656567	909.128956715582	207.581396263017	591.346132836304	776.121696209450	42.863915162209	551.343749809387	947.012784064310	96.744675928996	592.484882946659	857.720289649892	36.162821679239	627.721734681618	1066.330417798117	43.201478019179	621.188589447483	972.197752016132	99.737153320590	381.034787455076	1041.071319737191	86.890974310600	298.072763827579	1129.800436783435	144.025681166425	315.685520232530	1250.228522952939	82.570872949837	283.842298861629	830.905720481080	1090.728291190353	254.795024744948	825.758936833613	829.082883971554	254.539972395404	1102.878017364314	1100.759871598955	793.977391736850	1327.254452408488	995.089109350817	719.604146981630	
111	38.246428571429	766.169664437288	1014.992432538251	547.474454370524	947.465822025309	1429.908729184430	341.601822793997	1070.268750046308	1348.932945535019	484.022004011734	1022.902078098171	1433.000313077637	667.611492428434	982.861324902456	1489.421328812070	493.646150634469	1001.184155800788	941.791893630885	638.391026203965	957.302309292236	956.936124687079	366.116185773219	1007.593505744082	733.515603538262	611.184564865503	910.700350214033	635.288520972032	674.711096483264	973.408478485618	573.889388477014	592.708192604272	961.626932685333	490.802477482881	596.872875361268	1048.433568903400	804.714599252421	395.177473873317	1027.662701085644	677.864471716031	304.552456239643	1139.417801224948	631.408164353296	364.302205042005	1174.753565182258	556.475556244540	350.211510783978	1144.480423267541	477.037070592966	341.099869470484	1049.176382667238	366.124602957133	291.270486207733	1114.590930411069	248.812067534069	339.413320724618	931.800883770951	405.481187295140	601.696506496300	858.516241924666	300.735271968458	659.838807046846	900.930315263648	207.736946284106	591.946724631349	767.800154054679	42.908251038813	551.438745503042	938.743733018774	96.686837049226	592.642227982231	849.377945561600	36.188137603229	627.905479193892	1058.003291271505	43.117603965047	621.284646626787	995.505225170927	90.790071707605	377.825649427128	1066.059507926384	82.307232569006	295.662904334580	1151.044113104701	144.359132042024	314.542323418965	1275.128740578996	90.081483361069	284.067184458580	823.026951772307	1093.418072964031	254.826864013322	809.042371856144	832.336542881378	256.488534570593	1112.391604185955	1102.853012703340	792.450354342104	1341.517207729738	1011.738443844104	714.477955109582	
